<?xml version="1.0" encoding="UTF-8"?>
<svg version="1.1" xmlns="http://www.w3.org/2000/svg" width="1024" height="1024">
<path d="M0 0 C337.92 0 675.84 0 1024 0 C1024 337.92 1024 675.84 1024 1024 C686.08 1024 348.16 1024 0 1024 C0 686.08 0 348.16 0 0 Z M316.74560547 170.66113281 C315.25663062 171.80316611 313.75639485 172.93049261 312.25390625 174.0546875 C298.37873071 184.83446507 285.6813453 198.07574151 275 212 C274.05693393 213.15784725 273.11002445 214.31257023 272.16015625 215.46484375 C221.44281689 277.21857326 202.35684601 356.34612999 210 435 C215.3032385 482.02646742 231.6542544 527.64739088 259.328125 566.17578125 C261.17112681 568.75134313 262.83287152 571.36632323 264.421875 574.10546875 C268.47012246 581.14059741 268.47012246 581.14059741 275.3515625 584.9375 C279.04991509 585.0019593 282.36126239 584.65050058 286 584 C287.10214844 583.835 288.20429688 583.67 289.33984375 583.5 C291.91763005 583.07534537 294.45389562 582.58196671 297 582 C294.2985714 578.37439845 291.59721916 574.75711295 288.796875 571.20703125 C277.40283316 556.70719413 267.4868583 541.37406327 259 525 C258.6174707 524.26233398 258.23494141 523.52466797 257.84082031 522.76464844 C244.10828114 495.89663701 235.57982118 466.75166335 231 437 C230.88140625 436.27474121 230.7628125 435.54948242 230.640625 434.80224609 C219.8518198 366.68185852 240.69455236 293.92655195 280.28955078 238.43579102 C285.88063095 230.75440754 291.81004003 223.57251777 298.390625 216.72265625 C300.56819939 214.45054644 302.64581544 212.14289176 304.6875 209.75 C310.91800295 202.58867492 317.6682029 196.27907785 325.0859375 190.36328125 C327.56228146 188.35498622 329.95202216 186.27867952 332.33618164 184.16308594 C384.84720007 138.07535725 459.17570883 120.63230193 527.5 124.625 C551.066814 126.26891879 574.3591307 130.20356962 597 137 C597.87237305 137.26006836 598.74474609 137.52013672 599.64355469 137.78808594 C633.64183767 148.10245549 663.93976597 164.62737493 691.09912109 187.40771484 C692.8973709 188.91403198 694.70724701 190.40515754 696.51953125 191.89453125 C709.87463863 202.98229224 722.43544273 215.20512619 733 229 C734.19109375 230.48306641 734.19109375 230.48306641 735.40625 231.99609375 C741.98606797 240.23842346 747.63226666 248.92936937 753 258 C753.61875 259.03785645 753.61875 259.03785645 754.25 260.09667969 C778.60547979 301.29169042 791.45084309 348.41463218 791.26074219 396.17382812 C791.25003867 399.36347561 791.26069074 402.55255717 791.2734375 405.7421875 C791.28489067 421.63856906 790.53750899 437.41419193 787.1875 453 C787.01500732 453.82209961 786.84251465 454.64419922 786.66479492 455.49121094 C786.12755973 457.99846817 785.56878732 460.49972648 785 463 C784.82629883 463.77279297 784.65259766 464.54558594 784.47363281 465.34179688 C774.81181094 507.38233047 753.45135513 546.46305702 725.4765625 579.06640625 C723.79769547 580.85943861 723.79769547 580.85943861 724 583 C725.7279454 583.2879909 727.46319752 583.54427021 729.20703125 583.7109375 C732 584 732 584 735.63671875 584.6640625 C740.67131074 585.35795632 745.56019459 585.84717753 749.80517578 582.63330078 C754.30554193 577.98546647 757.600634 572.46863942 761 567 C762.011608 565.47952056 763.02846048 563.96251605 764.05078125 562.44921875 C806.98676475 497.91694182 821.54375912 417.40809414 806.94946289 341.5324707 C805.7465967 335.6599708 804.4177064 329.8241399 803 324 C802.67805664 322.6711377 802.67805664 322.6711377 802.34960938 321.31542969 C794.57508178 290.37774609 779.97104324 260.20639443 762 234 C761.36795654 233.0706665 761.36795654 233.0706665 760.72314453 232.12255859 C754.67539387 223.27409247 748.05895139 215.05835583 741 207 C740.33097656 206.21882813 739.66195312 205.43765625 738.97265625 204.6328125 C727.40667611 191.3949184 714.90844279 178.61324458 700.68603516 168.23730469 C698.95281676 166.96537436 697.24717615 165.66205075 695.54296875 164.3515625 C650.37496019 129.95581461 597.22282476 110.58412109 541 105 C540.04746338 104.90428711 539.09492676 104.80857422 538.11352539 104.70996094 C528.06530788 103.81607407 518.01805387 103.75664268 507.9375 103.75 C507.01236603 103.74932526 506.08723206 103.74865051 505.13406372 103.74795532 C435.12073025 103.82865321 371.90793656 128.25464935 316.74560547 170.66113281 Z M434.99609375 171.73828125 C429.02506443 177.97647072 423.64560746 187.47659724 422 196 C421.31035156 195.855625 420.62070312 195.71125 419.91015625 195.5625 C406.87032003 192.98672988 393.89513195 193.22393069 382.1875 200.43359375 C371.73895761 207.91549643 364.46941005 216.40457658 361.46875 229.0859375 C359.17621636 243.33785496 362.12851389 256.45724563 370.52734375 268.12109375 C377.96148788 277.37441668 388.48979454 282.0356835 400 284 C414.24360272 285.19513035 426.63745741 281.68672198 438 273 C439.82652927 271.40477793 441.39662362 269.82453174 443 268 C446.15862048 269.44680575 448.69355937 271.25573388 451.4375 273.375 C461.97023286 280.74022487 473.49635831 282.25935959 486 281 C496.32144005 278.71774369 505.04668997 272.84476004 512 265 C512 264.34 512 263.68 512 263 C512.66 263.680625 513.32 264.36125 514 265.0625 C514.99519779 266.04654711 515.99581073 267.02513013 517 268 C517.58136719 268.56589844 518.16273438 269.13179688 518.76171875 269.71484375 C528.47230997 278.71634514 539.17190396 282.53662371 552.3671875 282.3125 C561.91114613 281.49151431 569.43526864 277.6446755 577 272 C578.35316611 271.0402544 579.70725273 270.08180457 581.0625 269.125 C582.031875 268.42375 583.00125 267.7225 584 267 C584.51046875 267.45890625 585.0209375 267.9178125 585.546875 268.390625 C593.03510277 274.7104768 601.78056225 278.87644868 611.7890625 278.31640625 C622.00273079 276.85473287 630.23713397 272.66128876 636.875 264.6875 C643.29477811 255.6908736 644.40882427 245.8217173 643 235 C640.18571235 224.16811953 633.90635233 215.01576522 624.29296875 209.21875 C615.29673984 204.43710874 606.96372546 204.66991339 597 205 C596.79375 203.72125 596.5875 202.4425 596.375 201.125 C594.11694327 191.20512318 588.13527931 183.88202964 580 178 C567.79451881 170.56317193 553.55556338 168.86462166 539.6015625 171.6875 C534.31115464 173.46578836 530.03250194 176.06577592 525.75390625 179.6328125 C523.92585274 181.05779853 522.09974284 182.03088792 520 183 C519.6596875 182.43152344 519.319375 181.86304688 518.96875 181.27734375 C515.33020019 175.48082423 511.44507874 171.13825984 506 167 C505.39542969 166.53722656 504.79085937 166.07445312 504.16796875 165.59765625 C483.17188082 151.05510272 453.5807194 155.61711475 434.99609375 171.73828125 Z M512 282 C509.62360129 283.3249056 509.62360129 283.3249056 507 285.1875 C493.69756207 293.93359108 480.12991215 295.6154962 464.5390625 293.5390625 C458.14818762 292.11327676 452.917609 289.57350562 447.375 286.109375 C445.14825249 284.83870122 445.14825249 284.83870122 443.09765625 285.1171875 C440.11736853 286.37146129 437.2948036 287.86174647 434.4375 289.375 C420.42247725 296.59047386 405.3477354 299.15204436 390 295 C389.01996551 300.00530215 388.77639874 304.86163137 388.64764404 309.94140625 C388.62173258 310.83095284 388.59582112 311.72049944 388.56912446 312.63700199 C388.48334501 315.6120728 388.40335491 318.58727163 388.32324219 321.5625 C388.26265767 323.6982896 388.20164744 325.83406717 388.14024353 327.96983337 C388.00851157 332.56796229 387.87892315 337.16614503 387.75072479 341.76437378 C387.54685822 349.04439888 387.33278507 356.32410106 387.11627197 363.60375977 C387.07974321 364.8334464 387.04321445 366.06313303 387.00557876 367.33008289 C386.93086446 369.8446433 386.85612761 372.35920305 386.78136873 374.87376213 C386.27806459 391.81764581 385.78156425 408.76166003 385.31298828 425.70654297 C384.9967119 437.14108922 384.66414422 448.57503556 384.31300282 460.0085659 C384.12799679 466.05386871 383.95124109 472.09915772 383.79445648 478.14526367 C383.646691 483.83900113 383.47738934 489.5317021 383.29205513 495.22433662 C383.22808141 497.30487914 383.17182847 499.38567686 383.12419701 501.46665764 C382.87649629 512.09674676 382.36771073 521.23816237 378.11317825 531.11390686 C376.28072957 535.86482395 376.30490133 540.46841822 376.4375 545.5 C376.42654297 546.43585938 376.41558594 547.37171875 376.40429688 548.3359375 C376.47586752 555.07312077 378.07044898 558.554848 382.46484375 563.72265625 C395.08512853 575.20477211 417.29734932 577.80604753 433.5625 580.1875 C434.60543213 580.34226807 435.64836426 580.49703613 436.72290039 580.65649414 C459.06720165 583.71410036 481.47505893 584.3751113 504 584.3125 C505.34564195 584.31087419 506.69128405 584.30936989 508.03692627 584.3079834 C528.48175909 584.27518632 548.72369339 583.78031397 569 581 C570.09747559 580.85014648 571.19495117 580.70029297 572.32568359 580.54589844 C602.06940192 576.48517904 602.06940192 576.48517904 625.7578125 559.734375 C630.30894654 553.37996143 628.70911602 542.45477367 628 535 C627.16565064 531.39469222 625.68722572 528.10453028 624.23561859 524.70576668 C622.90296419 520.70897809 622.5136884 517.05950676 622.37463379 512.8913269 C622.34022517 512.11204578 622.30581655 511.33276466 622.27036524 510.52986896 C622.16527305 508.02021473 622.07963459 505.51058419 622 503 C621.97324629 502.18449503 621.94649258 501.36899007 621.91892815 500.52877283 C621.72299911 494.3287369 621.58083567 488.12782963 621.44335938 481.92626953 C621.3958352 479.88086346 621.34804178 477.83546363 621.30000305 475.79006958 C621.19801053 471.42620449 621.09774933 467.06230447 620.99885559 462.69836807 C620.84234131 455.7983314 620.68101083 448.89841228 620.5189209 441.99850464 C620.08828804 423.63575553 619.66403689 405.27285995 619.24239016 386.90990245 C618.96446429 374.80756947 618.6839662 362.70530225 618.39858294 350.60314262 C618.23699706 343.7417392 618.07956715 336.88025686 617.92523956 330.01868653 C617.82861939 325.7639388 617.72825279 321.50928562 617.62682152 317.25465012 C617.58049553 315.27935649 617.53573104 313.30402555 617.49262428 311.32865906 C617.43368688 308.63778207 617.36921682 305.947093 617.30334473 303.25637817 C617.28748495 302.47099045 617.27162517 301.68560272 617.25528479 300.87641537 C617.1655732 297.43233595 616.91422271 294.31741609 616 291 C614.81664062 290.90203125 613.63328125 290.8040625 612.4140625 290.703125 C602.86866808 289.83077247 594.39605806 288.78288259 585.9921875 283.8125 C583.4860943 282.79040709 582.54626952 283.19621138 580 284 C578.14875437 284.92970945 576.29900786 285.8630397 574.46801758 286.83203125 C567.78311565 290.3627948 561.65088288 293.44313194 554 294 C553.0203125 294.07992188 552.040625 294.15984375 551.03125 294.2421875 C537.09751543 294.81712315 525.54686546 290.49464351 514 283 C513.01 282.505 513.01 282.505 512 282 Z M630 302 C629.90016942 303.98757028 629.86919247 305.9786752 629.8671875 307.96875 C629.86589844 309.17917969 629.86460937 310.38960938 629.86328125 311.63671875 C629.86714844 312.91160156 629.87101563 314.18648438 629.875 315.5 C629.87113281 316.77488281 629.86726562 318.04976563 629.86328125 319.36328125 C629.86457031 320.57371094 629.86585938 321.78414063 629.8671875 323.03125 C629.86831543 324.15080078 629.86944336 325.27035156 629.87060547 326.42382812 C629.70783632 328.93141802 629.70783632 328.93141802 631 330 C633.41383456 330.11074209 635.80383994 330.16162363 638.21875 330.17578125 C639.72397186 330.19900909 641.22918019 330.22312756 642.734375 330.24804688 C645.10620778 330.28294112 647.47755306 330.31237172 649.84960938 330.32592773 C666.67456927 330.44090065 666.67456927 330.44090065 674 335 C674.9075 335.53625 675.815 336.0725 676.75 336.625 C683.31303622 343.55264934 685.14734405 351.708906 685.16113281 360.93041992 C685.16858017 362.12393066 685.16858017 362.12393066 685.17617798 363.34155273 C685.19076928 365.97120026 685.19759756 368.6007874 685.203125 371.23046875 C685.2088802 373.06407166 685.21463788 374.89767457 685.22039795 376.73127747 C685.23090019 380.57712076 685.23674753 384.42294321 685.24023438 388.26879883 C685.24570878 393.18015372 685.26971754 398.09122995 685.29820633 403.00249767 C685.31689743 406.79192388 685.32204181 410.58128394 685.32357025 414.37075233 C685.32658415 416.18032665 685.3345697 417.98990015 685.34775543 419.79942894 C685.44423304 434.06070098 684.06934269 445.90680522 674.18359375 457.046875 C667.21144874 463.63872119 658.31259334 466.92913864 648.796875 467.31640625 C647.91354492 467.35451416 647.03021484 467.39262207 646.12011719 467.43188477 C645.00797852 467.47498779 643.89583984 467.51809082 642.75 467.5625 C637.42875 467.7790625 637.42875 467.7790625 632 468 C632 477.57 632 487.14 632 497 C647.74185226 500.93546306 667.81645994 498.05859416 681.6875 489.8125 C697.77496952 478.82251356 709.51577996 464.17273373 714 445 C714.39292966 441.42890588 714.42128418 437.89910748 714.40405273 434.30883789 C714.41434761 432.7823336 714.41434761 432.7823336 714.42485046 431.22499084 C714.44301858 427.89073379 714.43929527 424.55695175 714.43359375 421.22265625 C714.43816019 418.88675282 714.44346713 416.55085072 714.44947815 414.21495056 C714.45838957 409.33050055 714.45600831 404.44621421 714.44604492 399.56176758 C714.43455551 393.32342323 714.45477706 387.08564495 714.48396206 380.84737492 C714.50236669 376.02673291 714.5020231 371.20622552 714.49632454 366.38555717 C714.49617186 364.08641198 714.50217165 361.78725735 714.51461601 359.48814583 C714.52960533 356.26526159 714.51879026 353.04341006 714.50170898 349.82055664 C714.51137695 348.88463684 714.52104492 347.94871704 714.53100586 346.98443604 C714.3882935 334.03151694 708.57828182 323.95757014 699.83203125 314.70703125 C686.19098055 301.83857103 669.64009214 300.49942545 651.76342773 300.71875 C649.14617978 300.75050128 646.52953273 300.75979284 643.91210938 300.765625 C642.24738839 300.77477429 640.58267354 300.78514333 638.91796875 300.796875 C637.7447834 300.80324982 637.7447834 300.80324982 636.54789734 300.80975342 C632.9773007 300.53050785 632.9773007 300.53050785 630 302 Z M134 627 C124.31081197 638.59425037 122.69650892 652.13713543 122.6640625 666.765625 C122.6574057 667.84269714 122.6507489 668.91976929 122.64389038 670.02947998 C122.63384075 672.29160881 122.62907095 674.55376684 122.62939453 676.81591797 C122.62502809 680.22804954 122.58864212 683.63887805 122.55078125 687.05078125 C122.46425379 703.76131081 122.91666823 720.60360537 134.58984375 733.796875 C142.12584894 740.96051288 151.85431693 743.10527298 162 743 C171.4306023 742.2775462 180.16312634 739.30646006 186.875 732.4375 C193.21911197 724.46247246 195.08486756 713.99739877 195 704 C193.38219843 702.38219843 191.54364482 702.77727853 189.30859375 702.68359375 C188.36435547 702.64169922 187.42011719 702.59980469 186.44726562 702.55664062 C185.45404297 702.51732422 184.46082031 702.47800781 183.4375 702.4375 C181.94186523 702.37272461 181.94186523 702.37272461 180.41601562 702.30664062 C177.9441585 702.20019702 175.4721969 702.09818072 173 702 C172.84144531 702.81984375 172.68289062 703.6396875 172.51953125 704.484375 C170.61954914 713.25998297 170.61954914 713.25998297 167.75 716.6875 C164.35103614 718.30973275 161.77419418 718.93260368 158 719 C154.42605414 717.61915728 153.24614756 716.40438527 151.25 713.125 C149.50989179 708.77472947 148.87658758 704.83789784 148.85473633 700.16894531 C148.84835648 699.2373761 148.84197662 698.30580688 148.83540344 697.3460083 C148.83429062 696.35010681 148.8331778 695.35420532 148.83203125 694.328125 C148.82870285 693.29113464 148.82537445 692.25414429 148.82194519 691.18572998 C148.81688906 688.99361615 148.81453646 686.80149465 148.81469727 684.609375 C148.81251695 681.27591061 148.79436403 677.94278062 148.77539062 674.609375 C148.7724551 672.47395946 148.77047137 670.33854235 148.76953125 668.203125 C148.76234573 667.21532043 148.75516022 666.22751587 148.74775696 665.20977783 C148.77099091 658.07957938 148.98644559 651.11776167 152.9375 645 C155.71290379 642.30869935 157.6118154 642.03528951 161.4375 641.6875 C165 642 165 642 167.11328125 643.59765625 C169.46364654 646.59035739 170.00678447 649.03392237 170.75 652.75 C170.99234375 653.92046875 171.2346875 655.0909375 171.484375 656.296875 C171.65453125 657.18890625 171.8246875 658.0809375 172 659 C179.94957992 659.22428282 187.27111181 658.95403042 195 657 C195.6430813 645.76394067 194.28009791 635.99306212 187 627 C179.75510183 619.92358784 171.38488721 617.13193528 161.375 616.75 C150.83931588 616.9240128 141.81431623 619.78464205 134 627 Z M321 618 C318.60333352 624.16892785 318.60333352 624.16892785 316.90687561 630.36482239 C316.65693596 631.51390579 316.65693596 631.51390579 316.40194702 632.686203 C316.23200226 633.49720963 316.0620575 634.30821625 315.88696289 635.14379883 C315.69787857 636.02152954 315.50879425 636.89926025 315.3139801 637.80358887 C314.69437309 640.68685518 314.08346067 643.57188851 313.47265625 646.45703125 C313.03864778 648.48527605 312.60410369 650.5134063 312.16905212 652.54142761 C311.02589603 657.87750046 309.89014801 663.21512383 308.75592041 668.55310059 C307.61334259 673.92374938 306.46353154 679.29284842 305.31445312 684.66210938 C303.24059817 694.3593632 301.16963214 704.05722016 299.11331177 713.75820923 C298.35525707 717.33405397 297.59020976 720.90831688 296.8210144 724.48178101 C296.45021127 726.21530205 296.07945135 727.94883233 295.70874023 729.68237305 C295.44943143 730.8776007 295.44943143 730.8776007 295.18488407 732.09697437 C294.54057637 735.1223471 294 737.8970535 294 741 C302.25 741 310.5 741 319 741 C320.24762858 735.38567138 321.35670961 730.08992213 322.125 724.4375 C322.558125 721.2509375 322.558125 721.2509375 323 718 C331.25 718 339.5 718 348 718 C349.32 725.59 350.64 733.18 352 741 C360.58 741 369.16 741 378 741 C377.23959341 733.80939751 377.23959341 733.80939751 375.9753418 726.80656433 C375.7734726 725.8828302 375.57160339 724.95909607 375.36361694 724.00737 C375.14436554 723.02678116 374.92511414 722.04619232 374.69921875 721.03588867 C374.46659332 719.97786041 374.2339679 718.91983215 373.99429321 717.82974243 C373.22983012 714.35814823 372.45873659 710.88806388 371.6875 707.41796875 C371.15284562 704.99669428 370.61859055 702.5753316 370.0847168 700.15388489 C368.68203851 693.7972976 367.27364508 687.44198959 365.86413574 681.08691406 C364.71271162 675.89111068 363.56521902 670.69444499 362.41795349 665.49772167 C360.0496133 654.76996525 357.67868651 644.04277923 355.30078125 633.31713867 C355.08152985 632.32642868 354.86227844 631.33571869 354.63638306 630.31498718 C354.43451385 629.40535217 354.23264465 628.49571716 354.0246582 627.55851746 C353.84989456 626.77009051 353.67513092 625.98166357 353.49507141 625.1693449 C353.02428417 623.10641038 352.5131987 621.05279481 352 619 C341.77 618.67 331.54 618.34 321 618 Z M394.25521851 618.50808716 C393.26962133 618.59973207 392.28402416 618.69137699 391.26856041 618.78579903 C390.51993547 618.85648535 389.77131054 618.92717167 389 619 C388.97667069 634.75916744 388.95902067 650.51833024 388.94818783 666.27751064 C388.94302494 673.59427402 388.93598238 680.9110267 388.92456055 688.2277832 C388.91461349 694.60283018 388.90814652 700.97786941 388.90591151 707.35292393 C388.90460443 710.73048014 388.90151881 714.10801416 388.89426994 717.48556328 C388.88706387 721.25007343 388.88600887 725.01453685 388.88647461 728.77905273 C388.88287933 729.90689682 388.87928406 731.03474091 388.87557983 732.19676208 C388.8769545 733.21624939 388.87832916 734.23573669 388.87974548 735.28611755 C388.87882369 736.17749137 388.8779019 737.06886518 388.87695217 737.98725033 C388.77673494 739.99761536 388.77673494 739.99761536 390 741 C397.92 741 405.84 741 414 741 C414 725.16 414 709.32 414 693 C427.9375 693.0625 427.9375 693.0625 432.33959961 693.09008789 C433.47405518 693.09258545 434.60851074 693.09508301 435.77734375 693.09765625 C436.94515381 693.10289307 438.11296387 693.10812988 439.31616211 693.11352539 C441.91891551 693.30661495 441.91891551 693.30661495 443 692 C443.08685603 690.43827255 443.10702219 688.87270656 443.09765625 687.30859375 C443.09443359 686.36435547 443.09121094 685.42011719 443.08789062 684.44726562 C443.07951172 683.45404297 443.07113281 682.46082031 443.0625 681.4375 C443.05798828 680.44041016 443.05347656 679.44332031 443.04882812 678.41601562 C443.03700007 675.94395151 443.02051849 673.47200482 443 671 C437.06395962 669.69571431 431.16570469 669.88951746 425.125 669.9375 C421.45375 669.958125 417.7825 669.97875 414 670 C414.33 660.76 414.66 651.52 415 642 C417.28679687 642.01160156 419.57359375 642.02320313 421.9296875 642.03515625 C424.14046083 642.04295131 426.35123263 642.04902552 428.56201172 642.05493164 C430.10043013 642.05996552 431.63884375 642.06679308 433.17724609 642.07543945 C435.38640526 642.08754639 437.59550126 642.09323769 439.8046875 642.09765625 C440.83914505 642.10539818 440.83914505 642.10539818 441.89450073 642.11329651 C445.57059655 642.16318164 445.57059655 642.16318164 449 641 C449 633.74 449 626.48 449 619 C437.86628142 618.14356011 426.7866875 617.88907527 415.625 617.875 C414.59258179 617.87125366 414.59258179 617.87125366 413.53930664 617.86743164 C411.51834359 617.86142331 409.49752803 617.8630836 407.4765625 617.8671875 C405.7143335 617.86887939 405.7143335 617.86887939 403.91650391 617.87060547 C400.6678313 617.97793601 397.48899211 618.20539094 394.25521851 618.50808716 Z M209 619 C209 659.26 209 699.52 209 741 C211.59891154 742.29945577 213.32666656 742.0223077 216.2265625 741.87890625 C217.6199585 741.81425171 217.6199585 741.81425171 219.04150391 741.74829102 C220.22405762 741.68697998 221.40661133 741.62566895 222.625 741.5625 C226.37875 741.376875 230.1325 741.19125 234 741 C234 726.48 234 711.96 234 697 C237.465 697.495 237.465 697.495 241 698 C241.19822861 698.5092099 241.39645721 699.0184198 241.60069275 699.5430603 C243.65965105 704.83156267 245.71993809 710.11954596 247.78100586 715.40722656 C248.55055454 717.38202785 249.31976158 719.3569623 250.08862305 721.33203125 C251.19230302 724.16701578 252.29720114 727.00152288 253.40234375 729.8359375 C253.74716293 730.72243988 254.09198212 731.60894226 254.44725037 732.52230835 C254.76750687 733.34300812 255.08776337 734.16370789 255.41772461 735.00927734 C255.69974228 735.73319672 255.98175995 736.45711609 256.27232361 737.20297241 C256.99536974 739.05641762 256.99536974 739.05641762 258 741 C266.91 741 275.82 741 285 741 C282.99880044 734.99640131 280.94021675 729.19851615 278.49609375 723.38671875 C278.01016502 722.22146416 278.01016502 722.22146416 277.51441956 721.03266907 C276.83607952 719.40778332 276.15620864 717.78353586 275.47485352 716.15991211 C274.43341265 713.67775826 273.39699319 711.19355295 272.36132812 708.70898438 C271.69820735 707.12227432 271.03480584 705.53568155 270.37109375 703.94921875 C270.06272079 703.21064133 269.75434784 702.4720639 269.43663025 701.71110535 C268.05415533 698.4205289 266.66002789 695.16139551 265 692 C265.680625 691.835 266.36125 691.67 267.0625 691.5 C274.05791627 687.92787254 277.61711354 681.54350749 280.2734375 674.39453125 C284.04540022 661.96327776 283.71635272 646.20595772 277.78125 634.62109375 C272.24435954 625.28528122 265.12592821 622.3753094 255 619 C239.82 619 224.64 619 209 619 Z M458 620 C457.91314397 621.56172745 457.89297781 623.12729344 457.90234375 624.69140625 C457.90484131 625.54162354 457.90733887 626.39184082 457.90991211 627.26782227 C457.91901611 628.35506592 457.92812012 629.44230957 457.9375 630.5625 C457.958125 634.006875 457.97875 637.45125 458 641 C465.26 641.33 472.52 641.66 480 642 C480.33 674.67 480.66 707.34 481 741 C488.92 741 496.84 741 505 741 C505 708.33 505 675.66 505 642 C512.59 642 520.18 642 528 642 C529.62200515 640.37799485 529.1299075 638.57976969 529.1328125 636.34375 C529.13410156 635.40402344 529.13539063 634.46429687 529.13671875 633.49609375 C529.13285156 632.50738281 529.12898437 631.51867187 529.125 630.5 C529.12886719 629.51128906 529.13273438 628.52257812 529.13671875 627.50390625 C529.13542969 626.56417969 529.13414062 625.62445312 529.1328125 624.65625 C529.13112061 623.35397461 529.13112061 623.35397461 529.12939453 622.02539062 C529.2241537 620.00395846 529.2241537 620.00395846 528 619 C525.85799676 618.90047707 523.71267295 618.87200321 521.56835938 618.87060547 C520.89682327 618.86885315 520.22528717 618.86710083 519.53340149 618.86529541 C517.30349172 618.8608777 515.07366064 618.86381458 512.84375 618.8671875 C511.30057764 618.86651444 509.75740539 618.86554439 508.2142334 618.86428833 C504.9759826 618.86281147 501.73775933 618.86496553 498.49951172 618.86962891 C494.33957477 618.8753262 490.17970234 618.87204713 486.01976776 618.86605644 C482.83200592 618.86245051 479.64425949 618.86358956 476.45649719 618.86618423 C474.92222588 618.86685342 473.38795318 618.86602539 471.85368347 618.86370468 C469.71296459 618.86117762 467.57235158 618.86501946 465.43164062 618.87060547 C464.21109985 618.87140106 462.99055908 618.87219666 461.73303223 618.87301636 C459.08699015 618.68850112 459.08699015 618.68850112 458 620 Z M575 619 C575 659.26 575 699.52 575 741 C583.98947198 741.74912267 592.50492645 742.08635264 601.45507812 741.81298828 C603.62881538 741.74988925 605.80230255 741.70855885 607.9765625 741.66796875 C620.62941587 741.35397198 631.49543739 739.4717916 640.7890625 730.21875 C647.65070016 721.97126434 648.59136588 712.13859379 648.34765625 701.72265625 C647.51577875 692.81502412 644.78385845 685.04215659 638 679 C635.18490007 676.7226499 635.18490007 676.7226499 632 677 C632 676.34 632 675.68 632 675 C633.051875 674.7525 633.051875 674.7525 634.125 674.5 C639.84691547 671.5146528 642.86931904 666.12312136 644.875 660.125 C647.45599904 650.07753946 646.15989997 640.86838566 641.25 631.75 C635.24216393 624.40708925 630.56852802 622.47946473 621 619 C605.82 619 590.64 619 575 619 Z M662 619 C662 659.26 662 699.52 662 741 C672.209375 741.020625 682.41875 741.04125 692.9375 741.0625 C696.16523193 741.071604 699.39296387 741.08070801 702.71850586 741.09008789 C705.2589514 741.09300676 707.7993974 741.09555539 710.33984375 741.09765625 C711.00407852 741.10026962 711.66831329 741.102883 712.35267639 741.10557556 C714.30012857 741.11285688 716.24760258 741.1133384 718.19506836 741.11352539 C719.29427109 741.115746 720.39347382 741.11796661 721.52598572 741.12025452 C723.9435147 741.28046633 723.9435147 741.28046633 725 740 C725.09880797 738.52347336 725.13079245 737.04232764 725.1328125 735.5625 C725.13410156 734.66789063 725.13539063 733.77328125 725.13671875 732.8515625 C725.13091797 731.44003906 725.13091797 731.44003906 725.125 730 C725.12886719 729.05898438 725.13273438 728.11796875 725.13671875 727.1484375 C725.13478516 725.80652344 725.13478516 725.80652344 725.1328125 724.4375 C725.13112061 723.19806641 725.13112061 723.19806641 725.12939453 721.93359375 C725.21264807 719.99320961 725.21264807 719.99320961 724 719 C719.28668417 718.16034966 714.75375119 717.88109444 709.97265625 717.90234375 C708.04389648 717.90717773 708.04389648 717.90717773 706.07617188 717.91210938 C704.73828055 717.92046198 703.40038993 717.92892689 702.0625 717.9375 C700.69726726 717.94252341 699.33203274 717.94708483 697.96679688 717.95117188 C694.64451212 717.9629114 691.32225028 717.98084545 688 718 C687.505 704.14 687.505 704.14 687 690 C689.07023438 690.01160156 691.14046875 690.02320313 693.2734375 690.03515625 C695.27571493 690.0421086 697.27799265 690.0490259 699.28027344 690.05493164 C700.67318477 690.0599643 702.0660908 690.06679098 703.45898438 690.07543945 C705.45961246 690.08755152 707.46027888 690.09270412 709.4609375 690.09765625 C710.66540527 690.10289307 711.86987305 690.10812988 713.11083984 690.11352539 C715.9413677 690.20087891 715.9413677 690.20087891 718 689 C718.02887814 685.52085059 718.04675687 682.04173169 718.0625 678.5625 C718.07506836 677.07266602 718.07506836 677.07266602 718.08789062 675.55273438 C718.09111328 674.60849609 718.09433594 673.66425781 718.09765625 672.69140625 C718.10289307 671.81685791 718.10812988 670.94230957 718.11352539 670.04125977 C718.22784809 668.00559794 718.22784809 668.00559794 717 667 C714.78144736 666.91216458 712.56011504 666.89305391 710.33984375 666.90234375 C709.67537735 666.9037587 709.01091095 666.90517365 708.3263092 666.90663147 C706.19666101 666.91224482 704.06711661 666.92479946 701.9375 666.9375 C700.49674631 666.94251329 699.05599097 666.94707649 697.61523438 666.95117188 C694.07675042 666.96136924 690.53849187 666.9809417 687 667 C687 658.42 687 649.84 687 641 C689.58714844 641.01160156 692.17429687 641.02320313 694.83984375 641.03515625 C697.33520383 641.04294662 699.83056257 641.04902349 702.32592773 641.05493164 C704.06519168 641.05997204 705.80445136 641.0668043 707.54370117 641.07543945 C710.03825937 641.08751792 712.53276173 641.09323108 715.02734375 641.09765625 C716.2007859 641.10539818 716.2007859 641.10539818 717.39793396 641.11329651 C719.26567114 641.11349226 721.13329204 641.06199694 723 641 C724.58937556 639.41062444 724.12981143 637.76100154 724.1328125 635.5625 C724.13410156 634.66789063 724.13539063 633.77328125 724.13671875 632.8515625 C724.13091797 631.44003906 724.13091797 631.44003906 724.125 630 C724.12886719 629.05898438 724.13273438 628.11796875 724.13671875 627.1484375 C724.13478516 625.80652344 724.13478516 625.80652344 724.1328125 624.4375 C724.13112061 623.19806641 724.13112061 623.19806641 724.12939453 621.93359375 C724.21264807 619.99320961 724.21264807 619.99320961 723 619 C702.87 619 682.74 619 662 619 Z M739 619 C739 659.26 739 699.52 739 741 C759.46 741 779.92 741 801 741 C801 733.74 801 726.48 801 719 C793.57985198 718.1519123 793.57985198 718.1519123 786.23046875 717.8671875 C784.74450195 717.86525391 784.74450195 717.86525391 783.22851562 717.86328125 C782.22498047 717.86714844 781.22144531 717.87101563 780.1875 717.875 C779.16462891 717.87113281 778.14175781 717.86726562 777.08789062 717.86328125 C775.6115918 717.86521484 775.6115918 717.86521484 774.10546875 717.8671875 C772.77745239 717.86887939 772.77745239 717.86887939 771.42260742 717.87060547 C768.70606456 717.93858346 768.70606456 717.93858346 765 719 C765 709.43 765 699.86 765 690 C774.57 690 784.14 690 794 690 C794 682.74 794 675.48 794 668 C784.43 668 774.86 668 765 668 C765 659.09 765 650.18 765 641 C776.55 641 788.1 641 800 641 C800.020625 637.555625 800.04125 634.11125 800.0625 630.5625 C800.071604 629.47525635 800.08070801 628.3880127 800.09008789 627.26782227 C800.09258545 626.41760498 800.09508301 625.5673877 800.09765625 624.69140625 C800.10289307 623.81685791 800.10812988 622.94230957 800.11352539 622.04125977 C800.22784809 620.00559794 800.22784809 620.00559794 799 619 C779.2 619 759.4 619 739 619 Z M815 619 C815 659.26 815 699.52 815 741 C823.25 741 831.5 741 840 741 C840 726.48 840 711.96 840 697 C843.465 697.495 843.465 697.495 847 698 C848.16913657 700.89485677 849.33566037 703.79071301 850.5 706.6875 C850.85731201 707.57493896 851.21462402 708.46237793 851.58276367 709.37670898 C853.51371134 714.19753329 855.39898916 719.03007181 857.20703125 723.8984375 C857.73683594 725.32023315 857.73683594 725.32023315 858.27734375 726.77075195 C858.95755471 728.60523599 859.63094963 730.4422645 860.296875 732.28198242 C860.60753906 733.11834229 860.91820312 733.95470215 861.23828125 734.81640625 C861.50680908 735.55318604 861.77533691 736.28996582 862.05200195 737.04907227 C863.14215769 739.29255268 863.97165526 740.53178871 866 742 C868.61154091 742.4137098 868.61154091 742.4137098 871.54296875 742.29296875 C872.61611328 742.28330078 873.68925781 742.27363281 874.79492188 742.26367188 C875.91447266 742.23853516 877.03402344 742.21339844 878.1875 742.1875 C879.88422852 742.16719727 879.88422852 742.16719727 881.61523438 742.14648438 C884.41063317 742.11109958 887.20507892 742.06172948 890 742 C891.1583002 738.5250994 890.86615815 738.01433397 889.49291992 734.77563477 C889.13892624 733.92787979 888.78493256 733.08012482 888.42021179 732.2066803 C888.02759659 731.29413986 887.63498138 730.38159943 887.23046875 729.44140625 C886.83426834 728.50070786 886.43806793 727.56000946 886.02986145 726.59080505 C884.75799447 723.57750553 883.47276991 720.57010359 882.1875 717.5625 C881.33183519 715.53876942 880.47700702 713.51468487 879.62304688 711.49023438 C878.05203946 707.77596976 876.47937 704.06245909 874.89526367 700.35375977 C874.57692062 699.60780045 874.25857758 698.86184113 873.93058777 698.09327698 C873.01274486 696.02866847 872.02669212 694.01238623 871 692 C871.70125 691.814375 872.4025 691.62875 873.125 691.4375 C880.26624063 687.86687968 884.1159708 680.33094625 886.6875 673.0546875 C890.07964323 660.66394208 889.17467913 644.92878271 882.8125 633.6875 C877.00710557 625.31936388 869.87626952 620.9752539 860 619 C845.15 619 830.3 619 815 619 Z M322 778 C312.78106952 790.50831412 311.84691949 803.72686143 311.796875 818.75390625 C311.79404762 819.41403151 311.79122025 820.07415676 311.78830719 820.75428581 C311.77337423 824.25229151 311.76410931 827.75025664 311.75976562 831.24829102 C311.75430921 834.81951545 311.73032475 838.3903532 311.70179367 841.96145725 C311.68295136 844.74398295 311.67795025 847.5264198 311.67642975 850.30900383 C311.67201912 852.25288729 311.65347826 854.19672276 311.63446045 856.14051819 C311.66877744 870.06394583 313.82785232 884.29199847 322.93359375 895.34765625 C331.7970153 904.04844621 343.07428425 906.84142788 355.14453125 907.0625 C367.32957724 906.86497139 378.19311226 903.75390896 387.375 895.375 C399.21102923 882.50331821 400.14990056 865.92095964 400.16796875 849.359375 C400.17129715 848.27472961 400.17462555 847.19008423 400.17805481 846.0725708 C400.18308913 843.79008403 400.18546422 841.50758998 400.18530273 839.22509766 C400.18748505 835.77363675 400.20566724 832.32249813 400.22460938 828.87109375 C400.41316185 799.63834832 400.41316185 799.63834832 386.03515625 775.0234375 C368.72203373 760.30884874 337.62744808 760.9051859 322 778 Z M516 769 C515.89425128 803.88868349 515.8825869 838.77314569 516.40571976 873.65883255 C516.43757303 875.81744921 516.46751658 877.97608542 516.49703979 880.13473511 C516.55240785 884.13812804 516.61704874 888.14130821 516.68359375 892.14453125 C516.70031128 893.33907928 516.71702881 894.53362732 516.73425293 895.76437378 C516.75419312 896.84220123 516.7741333 897.92002869 516.79467773 899.03051758 C516.81022202 899.97188065 516.8257663 900.91324371 516.84178162 901.88313293 C516.76739677 903.98487562 516.76739677 903.98487562 518 905 C520.04468974 905.10465469 522.09302554 905.13856044 524.14038086 905.14526367 C525.45521957 905.15164352 526.77005829 905.15802338 528.1247406 905.16459656 C529.57144128 905.16612511 531.01814245 905.16723914 532.46484375 905.16796875 C533.93835992 905.1711796 535.41187576 905.17454354 536.88539124 905.17805481 C539.9782078 905.18405252 543.07099639 905.18589406 546.16381836 905.18530273 C550.13313768 905.18520108 554.10227822 905.19885321 558.07155514 905.21607494 C561.11610238 905.22717637 564.16060617 905.22922252 567.20517159 905.22869301 C568.66884541 905.22987594 570.13252025 905.23431516 571.59617424 905.24202538 C573.64083442 905.2517872 575.6855467 905.24769288 577.73022461 905.24291992 C578.89525009 905.24434494 580.06027557 905.24576996 581.26060486 905.24723816 C584.14534323 905.28177964 584.14534323 905.28177964 586 903 C586.2940915 900.68895725 586.2940915 900.68895725 586.23046875 898.02734375 C586.22853516 897.04572266 586.22660156 896.06410156 586.22460938 895.05273438 C586.21236328 894.02470703 586.20011719 892.99667969 586.1875 891.9375 C586.18685547 890.90560547 586.18621094 889.87371094 586.18554688 888.81054688 C586.60408311 884.05959754 586.60408311 884.05959754 585 880 C581.97022196 879.91128727 578.96332978 879.8848065 575.93359375 879.90234375 C575.02497086 879.9037587 574.11634796 879.90517365 573.18019104 879.90663147 C570.26592779 879.91224807 567.35174019 879.92480335 564.4375 879.9375 C562.46679798 879.94251286 560.49609476 879.94707614 558.52539062 879.95117188 C553.68354086 879.96137383 548.84185553 879.98094591 544 880 C544 869.44 544 858.88 544 848 C556.5625 848.0625 556.5625 848.0625 560.48266602 848.09008789 C566.0947162 848.10358782 571.47652884 848.03007465 577 847 C577.02887236 843.18751574 577.04675492 839.3750593 577.0625 835.5625 C577.07506836 833.92958008 577.07506836 833.92958008 577.08789062 832.26367188 C577.09111328 831.22919922 577.09433594 830.19472656 577.09765625 829.12890625 C577.10289307 828.17056885 577.10812988 827.21223145 577.11352539 826.22485352 C577.2505313 824.02714661 577.2505313 824.02714661 576 823 C573.6243148 822.9116033 571.27791326 822.88469695 568.90234375 822.90234375 C568.19348526 822.9037587 567.48462677 822.90517365 566.75428772 822.90663147 C564.48198288 822.91224557 562.20977525 822.92480037 559.9375 822.9375 C558.40039204 822.94251319 556.86328255 822.94707641 555.32617188 822.95117188 C551.55071333 822.9613703 547.77546596 822.98094268 544 823 C544 812.77 544 802.54 544 792 C546.80371094 792.01160156 549.60742188 792.02320313 552.49609375 792.03515625 C555.19995002 792.04294633 557.90380506 792.04902337 560.60766602 792.05493164 C562.4924373 792.05997244 564.37720465 792.06680498 566.26196289 792.07543945 C568.96501636 792.08751617 571.66801831 792.09323068 574.37109375 792.09765625 C575.21900986 792.10281754 576.06692596 792.10797882 576.9405365 792.11329651 C578.96071068 792.11349195 580.98077934 792.06206211 583 792 C584.68516954 790.31483046 584.13008019 788.21232212 584.1328125 785.90625 C584.13410156 784.87628906 584.13539063 783.84632813 584.13671875 782.78515625 C584.13285156 781.70105469 584.12898437 780.61695313 584.125 779.5 C584.12886719 778.41589844 584.13273438 777.33179688 584.13671875 776.21484375 C584.13542969 775.18488281 584.13414062 774.15492188 584.1328125 773.09375 C584.13112061 771.66579102 584.13112061 771.66579102 584.12939453 770.20898438 C584.24699456 768.02547862 584.24699456 768.02547862 583 767 C581.05778933 766.89549621 579.11175661 766.8614464 577.16674805 766.85473633 C575.91842697 766.84835648 574.6701059 766.84197662 573.38395691 766.83540344 C572.00987791 766.83387455 570.6357984 766.8327607 569.26171875 766.83203125 C567.86025457 766.82881967 566.45879073 766.82545568 565.05732727 766.82194519 C562.11413801 766.81594636 559.17097815 766.81410597 556.2277832 766.81469727 C552.45819531 766.81479872 548.68879648 766.80116693 544.91925335 766.78392506 C542.02217241 766.77279766 539.125137 766.77077831 536.22803688 766.77130699 C534.83858402 766.7701272 533.44912996 766.76570548 532.0596981 766.75797462 C530.11363529 766.74816405 528.16751727 766.7523198 526.22143555 766.75708008 C525.11414597 766.75565506 524.00685638 766.75423004 522.86601257 766.75276184 C520.0436037 766.9962385 518.39388521 767.53674393 516 769 Z M603 768 C602.83965429 769.61260984 602.74641639 771.23195719 602.68057251 772.85118103 C602.63813101 773.88370027 602.59568951 774.9162195 602.5519619 775.9800272 C602.51241701 777.10931109 602.47287212 778.23859499 602.43212891 779.40209961 C602.38965845 780.57207206 602.347188 781.74204451 602.30343056 782.94747066 C601.88947424 795.49110838 601.95225789 808.01867639 602.0859375 820.56640625 C602.10778788 822.99307406 602.12923343 825.41974554 602.15029907 827.84642029 C602.19522093 832.865515 602.24439036 837.88454328 602.296875 842.90356445 C602.36399506 849.34843018 602.42091944 855.79334037 602.47490501 862.23832798 C602.51756044 867.21809106 602.56500975 872.19779917 602.61400223 877.17750359 C602.63691757 879.55746095 602.65842488 881.9374323 602.67850876 884.31741524 C602.70711006 887.61215276 602.74205028 890.90676081 602.77880859 894.20141602 C602.7861351 895.18555481 602.79346161 896.1696936 602.80101013 897.18365479 C602.81224411 898.07301224 602.82347809 898.96236969 602.83505249 899.87867737 C602.84280386 900.65516412 602.85055523 901.43165087 602.85854149 902.23166752 C602.80972934 904.02588598 602.80972934 904.02588598 604 905 C605.84159023 905.09959621 607.68696967 905.13080411 609.53125 905.1328125 C611.21154297 905.13474609 611.21154297 905.13474609 612.92578125 905.13671875 C614.69501953 905.13091797 614.69501953 905.13091797 616.5 905.125 C617.67949219 905.12886719 618.85898437 905.13273438 620.07421875 905.13671875 C621.19441406 905.13542969 622.31460938 905.13414062 623.46875 905.1328125 C625.02239258 905.13112061 625.02239258 905.13112061 626.60742188 905.12939453 C628.95297823 905.26965153 628.95297823 905.26965153 630 904 C630.12232644 902.52749355 630.1777456 901.04934289 630.20532227 899.57202148 C630.22526749 898.63112167 630.24521271 897.69022186 630.26576233 896.72080994 C630.28247482 895.69790359 630.29918732 894.67499725 630.31640625 893.62109375 C630.33718735 892.57929459 630.35796844 891.53749542 630.37937927 890.46412659 C630.44499057 887.12198753 630.50381331 883.77976715 630.5625 880.4375 C630.60567422 878.17772582 630.64928814 875.91795999 630.69335938 873.65820312 C630.80068367 868.10555579 630.90242812 862.55282679 631 857 C633.64 857 636.28 857 639 857 C640.50321429 860.72787865 642.00241589 864.45735608 643.5 868.1875 C643.95052734 869.30906494 644.40105469 870.43062988 644.86523438 871.58618164 C648.18780171 879.88967106 651.40367825 888.22813658 654.48632812 896.6237793 C654.78990234 897.43758057 655.09347656 898.25138184 655.40625 899.08984375 C655.66728516 899.80003662 655.92832031 900.51022949 656.19726562 901.24194336 C656.96803434 903.20105255 656.96803434 903.20105255 659 905 C661.91487922 905.27876767 661.91487922 905.27876767 665.3203125 905.1953125 C666.57714844 905.18886719 667.83398438 905.18242188 669.12890625 905.17578125 C670.44761719 905.15902344 671.76632812 905.14226562 673.125 905.125 C674.46483721 905.11496983 675.80468152 905.10584404 677.14453125 905.09765625 C680.42986573 905.07402075 683.71484465 905.04107234 687 905 C687.33 904.34 687.66 903.68 688 903 C687.0651866 900.25221515 686.04829454 897.6151557 684.9375 894.9375 C684.59332031 894.09219727 684.24914062 893.24689453 683.89453125 892.37597656 C678.07940022 878.18923257 672.02179878 864.09994537 666 850 C666.93706787 849.53859619 666.93706787 849.53859619 667.89306641 849.06787109 C675.95385475 844.9823684 679.83128505 838.2700517 683 830 C684.83598172 823.73434809 685.35664668 817.69472112 685.3125 811.1875 C685.30686035 810.3123877 685.3012207 809.43727539 685.29541016 808.53564453 C685.09206714 797.64572003 683.11639621 787.58875404 676 779 C664.7248385 768.73872899 653.20261498 766.8357124 638.5078125 766.8671875 C637.52126678 766.86623077 636.53472107 766.86527405 635.51828003 766.86428833 C633.44577978 766.86361085 631.37327736 766.86543488 629.30078125 766.86962891 C626.11453569 766.8750177 622.9284289 766.86965177 619.7421875 766.86328125 C617.72656219 766.86394144 615.71093696 766.86522136 613.6953125 766.8671875 C612.7381131 766.86516327 611.7809137 766.86313904 610.79470825 766.86105347 C609.91644379 766.86420563 609.03817932 766.86735779 608.13330078 766.87060547 C606.9691716 766.87179886 606.9691716 766.87179886 605.78152466 766.87301636 C603.97538158 766.80627052 603.97538158 766.80627052 603 768 Z M703 768 C702.91273777 769.78071246 702.89300959 771.5648314 702.90234375 773.34765625 C702.90484131 774.31968994 702.90733887 775.29172363 702.90991211 776.29321289 C702.91901611 777.53707764 702.92812012 778.78094238 702.9375 780.0625 C702.958125 784.001875 702.97875 787.94125 703 792 C716.86 792 730.72 792 745 792 C735.60920415 811.68672865 726.18708928 831.36761798 715.99023438 850.65356445 C715.17082196 852.20383467 714.35690662 853.75702434 713.54882812 855.31323242 C711.59825909 859.05840557 709.58279932 862.71927371 707.3828125 866.32421875 C700.29504402 878.39561673 699.24777711 890.11738833 701 904 C702.61203917 905.61203917 704.33754506 905.12991334 706.5703125 905.1328125 C708.10014771 905.13583374 708.10014771 905.13583374 709.66088867 905.13891602 C710.80404541 905.13432373 711.94720215 905.12973145 713.125 905.125 C714.31520752 905.12234131 715.50541504 905.11968262 716.73168945 905.11694336 C728.47541327 905.05962859 740.21721518 904.85570479 751.9586792 904.62567139 C754.11608233 904.58346212 756.27351336 904.54265621 758.43096924 904.50323486 C761.4892697 904.44620567 764.54734994 904.38239049 767.60546875 904.31640625 C769.00672752 904.2913224 769.00672752 904.2913224 770.43629456 904.26573181 C774.5458886 904.58059317 774.5458886 904.58059317 778 903 C778.0991918 901.38916255 778.1307982 899.77404356 778.1328125 898.16015625 C778.13410156 897.17982422 778.13539063 896.19949219 778.13671875 895.18945312 C778.13285156 894.15755859 778.12898437 893.12566406 778.125 892.0625 C778.12886719 891.03447266 778.13273438 890.00644531 778.13671875 888.94726562 C778.13542969 887.96564453 778.13414062 886.98402344 778.1328125 885.97265625 C778.13112061 884.61539429 778.13112061 884.61539429 778.12939453 883.23071289 C778.14496576 880.96104141 778.14496576 880.96104141 777 879 C762.48 879 747.96 879 733 879 C737.26164063 870.49412109 737.26164063 870.49412109 741.609375 861.81640625 C743.41428481 858.21169947 745.21907482 854.60693368 747.0234375 851.00195312 C749.88392971 845.28693365 752.74484957 839.57213123 755.60839844 833.85864258 C757.91844136 829.24946601 760.22649722 824.63929938 762.53321075 820.02845573 C763.41117722 818.2743626 764.28984472 816.52062016 765.16924286 814.76724434 C766.40605887 812.30092956 767.64031802 809.83335043 768.87402344 807.36547852 C769.23367188 806.64977692 769.59332031 805.93407532 769.96386719 805.19668579 C775.39995475 795.24070289 775.39995475 795.24070289 777.42578125 784.34375 C777.41740234 783.3846875 777.40902344 782.425625 777.40039062 781.4375 C777.35688477 779.9834375 777.35688477 779.9834375 777.3125 778.5 C777.30283203 777.4996875 777.29316406 776.499375 777.28320312 775.46875 C777.62161487 770.89318608 777.62161487 770.89318608 776 767 C773.76612794 766.9003608 771.52906141 766.87200205 769.29296875 766.87060547 C768.24177353 766.86797699 768.24177353 766.86797699 767.16934204 766.86529541 C764.84203651 766.86087734 762.51480636 766.86381471 760.1875 766.8671875 C758.57706691 766.86651445 756.96663391 766.86554441 755.35620117 766.86428833 C751.97671545 766.86281142 748.5972561 766.86496569 745.21777344 766.86962891 C740.87623495 766.8753262 736.53475827 766.87204715 732.19322205 766.86605644 C728.86649099 766.86245064 725.5397747 766.8635895 722.21304321 766.86618423 C720.61178582 766.86685345 719.0105271 766.86602526 717.40927124 766.86370468 C715.17515489 766.86117784 712.94114 766.86501915 710.70703125 766.87060547 C709.4331958 766.87140106 708.15936035 766.87219666 706.84692383 766.87301636 C704.10037863 766.674656 704.10037863 766.674656 703 768 Z M235 768 C235 813.21 235 858.42 235 905 C256.78 905 278.56 905 301 905 C302.68516954 903.31483046 302.13008019 901.21232212 302.1328125 898.90625 C302.13410156 897.87628906 302.13539063 896.84632813 302.13671875 895.78515625 C302.13285156 894.70105469 302.12898438 893.61695313 302.125 892.5 C302.12886719 891.41589844 302.13273437 890.33179688 302.13671875 889.21484375 C302.13542969 888.18488281 302.13414062 887.15492188 302.1328125 886.09375 C302.13112061 884.66579102 302.13112061 884.66579102 302.12939453 883.20898438 C302.24699456 881.02547862 302.24699456 881.02547862 301 880 C298.1156618 879.91134792 295.25537842 879.88478704 292.37109375 879.90234375 C291.50686295 879.9037587 290.64263214 879.90517365 289.75221252 879.90663147 C286.98060708 879.91224761 284.2090812 879.92480281 281.4375 879.9375 C279.5631522 879.94251292 277.68880315 879.94707619 275.81445312 879.95117188 C271.20960456 879.96222228 266.60481579 879.9794977 262 880 C262.00138269 879.14328626 262.00138269 879.14328626 262.00279331 878.26926517 C262.02484956 864.39084823 262.04134829 850.51243434 262.05181217 836.63400364 C262.05697489 829.92258132 262.06401713 823.21117068 262.07543945 816.49975586 C262.08626565 810.02886264 262.09227626 803.55798158 262.09487724 797.08708 C262.09673198 794.61221055 262.1003535 792.1373418 262.10573006 789.66247749 C262.11293693 786.20929627 262.11399109 782.75616599 262.11352539 779.30297852 C262.11712067 778.26864182 262.12071594 777.23430511 262.12442017 776.16862488 C262.1230455 775.23327911 262.12167084 774.29793335 262.12025452 773.33424377 C262.12163721 772.10779821 262.12163721 772.10779821 262.12304783 770.85657597 C262.20369222 768.98409331 262.20369222 768.98409331 261 768 C252.42 768 243.84 768 235 768 Z M419.0703125 767.1484375 C417.76835937 767.22320313 416.46640625 767.29796875 415.125 767.375 C413.80757813 767.44460938 412.49015625 767.51421875 411.1328125 767.5859375 C410.09898437 767.72257813 409.06515625 767.85921875 408 768 C406.37275323 771.25449354 407.84747762 774.49424967 408.65551758 777.89819336 C408.84413361 778.71698975 409.03274963 779.53578613 409.2270813 780.37939453 C409.85964788 783.11778249 410.50209748 785.85375526 411.14453125 788.58984375 C411.59343023 790.52407635 412.04171723 792.45845107 412.48942566 794.39295959 C413.68124137 799.53510063 414.88139293 804.67526192 416.08325195 809.81506348 C417.26285856 814.8658096 418.43489493 819.91830969 419.60742188 824.97070312 C421.4640199 832.96728311 423.32704732 840.96233913 425.19384766 848.95654297 C427.10827868 857.15556086 429.00688947 865.35810075 430.89599609 873.56298828 C431.58759612 876.56048453 432.27951216 879.55790764 432.97156334 882.55529976 C433.41272013 884.4694772 433.85260516 886.38394822 434.29117775 888.29871941 C434.89362197 890.9284962 435.50040068 893.55723705 436.1081543 896.18579102 C436.37520078 897.35984214 436.37520078 897.35984214 436.64764214 898.55761147 C437.22600935 902.07028638 437.22600935 902.07028638 439 905 C441.42490371 905.11322434 443.82026862 905.16416875 446.24609375 905.16796875 C446.97240494 905.17129715 447.69871613 905.17462555 448.44703674 905.17805481 C449.98625046 905.18312675 451.5254752 905.18546305 453.06469727 905.18530273 C455.42417471 905.18748766 457.78318361 905.20563565 460.14257812 905.22460938 C461.63541506 905.22754352 463.12825423 905.22952817 464.62109375 905.23046875 C465.68365639 905.24124702 465.68365639 905.24124702 466.76768494 905.25224304 C470.83409632 905.35277043 470.83409632 905.35277043 474 903 C474.75852401 900.63314712 474.75852401 900.63314712 475.34146118 897.81314087 C475.58822098 896.713918 475.83498077 895.61469513 476.08921814 894.48216248 C476.35319901 893.27069046 476.61717987 892.05921844 476.88916016 890.81103516 C477.17230576 889.53945053 477.45545135 888.26786591 477.74717712 886.95774841 C478.52453083 883.46539444 479.29255573 879.9710482 480.05873156 876.47622728 C480.86135985 872.8214964 481.67171981 869.16847999 482.48104858 865.51522827 C483.83947419 859.37780606 485.19206879 853.23912147 486.54101562 847.09960938 C488.10073543 840.00103835 489.66859478 832.90430457 491.24108088 825.80855143 C492.75296886 818.98575059 494.26004573 812.16189665 495.76459885 805.33747482 C496.40515072 802.43215742 497.04721121 799.52717952 497.69044876 796.6224556 C498.58852619 792.56531462 499.47947103 788.50663982 500.36962891 784.44775391 C500.63765823 783.24033035 500.90568756 782.0329068 501.18183899 780.78889465 C501.42295914 779.68403214 501.66407928 778.57916962 501.9125061 777.44082642 C502.22939361 776.00119506 502.22939361 776.00119506 502.55268288 774.53248024 C503.11595967 771.77210946 503.11595967 771.77210946 503 768 C494.09 768 485.18 768 476 768 C474.78344234 772.25795181 473.65528922 776.32354045 472.75073242 780.62695312 C472.52662689 781.68853638 472.30252136 782.75011963 472.07162476 783.84387207 C471.83529327 784.97820679 471.59896179 786.1125415 471.35546875 787.28125 C471.10511871 788.47649292 470.85476868 789.67173584 470.59683228 790.90319824 C469.92742217 794.10870417 469.26105715 797.31481749 468.59723282 800.52148438 C468.18733001 802.50082086 467.77625642 804.47991174 467.36508179 806.45898438 C463.54827958 824.85498106 459.97146794 843.23408552 457.38208008 861.84765625 C457 864 457 864 456 866 C455.77618652 864.68346436 455.77618652 864.68346436 455.54785156 863.34033203 C451.65773877 840.65571439 447.25544157 818.09303295 442.5625 795.5625 C442.42499832 794.90233131 442.28749664 794.24216263 442.14582825 793.56198883 C440.43932379 785.37281683 438.72391573 777.18552462 437 769 C430.69351045 767.0978345 425.61876981 766.90108027 419.0703125 767.1484375 Z " fill="#000000" transform="translate(0,0)"/>
<path d="M0 0 C0.88365234 0.00064453 1.76730469 0.00128906 2.67773438 0.00195312 C3.59748047 0.01806641 4.51722656 0.03417969 5.46484375 0.05078125 C6.38845703 0.04755859 7.31207031 0.04433594 8.26367188 0.04101562 C15.13529202 0.09622952 15.13529202 0.09622952 17.40234375 2.36328125 C17.64272213 4.94105434 17.64272213 4.94105434 17.62718201 8.24327087 C17.62515557 9.47427552 17.62312914 10.70528017 17.6210413 11.97358799 C17.60781732 13.32866987 17.59406639 14.68374669 17.57983398 16.03881836 C17.57167327 17.4451648 17.56394877 18.85151383 17.55663967 20.25786495 C17.46334017 34.34291272 17.07653197 48.42048392 16.62755895 62.49816251 C16.5154236 66.04278105 16.40843117 69.58755603 16.30064392 73.13230896 C16.11978838 79.05567713 15.93528441 84.97892219 15.74829102 90.90209961 C15.53353623 97.70571337 15.3242234 104.50947808 15.11782938 111.31335026 C14.91659838 117.94440259 14.71209472 124.57534989 14.50594902 131.20625114 C14.41930045 133.99411171 14.33365603 136.78200025 14.2488575 139.56991768 C14.13030689 143.46021344 14.00691257 147.3503479 13.88305664 151.24047852 C13.84924896 152.36638901 13.81544128 153.4922995 13.78060913 154.65232849 C13.67525111 157.89054665 13.54469426 161.12648731 13.40234375 164.36328125 C13.3294856 166.25487126 13.3294856 166.25487126 13.25515556 168.18467522 C13.19068796 169.44239801 13.12622036 170.70012081 13.05979919 171.99595642 C12.979294 173.7151927 12.979294 173.7151927 12.89716244 175.46916103 C12.40234375 178.36328125 12.40234375 178.36328125 11.04191685 180.23633671 C7.06539524 182.96955997 0.99019539 181.7718264 -3.59765625 181.36328125 C-7.01582732 180.57578942 -9.76844797 179.64191344 -11.75938511 176.57190514 C-12.73872011 173.9916151 -12.83840389 172.0334177 -12.82249451 169.27529907 C-12.82046807 168.2608843 -12.81844164 167.24646954 -12.8163538 166.20131493 C-12.80275538 165.1031476 -12.78915697 164.00498028 -12.77514648 162.87353516 C-12.76749236 161.71942957 -12.75983824 160.56532398 -12.75195217 159.3762455 C-12.63468874 146.31119508 -12.21036176 133.25613826 -11.7578125 120.19921875 C-11.67017717 117.58103586 -11.58289974 114.96284097 -11.49595642 112.34463501 C-11.31469863 106.90413633 -11.13031763 101.46375155 -10.94360352 96.0234375 C-10.68323079 88.4366465 -10.42902702 80.84965763 -10.17585194 73.26262355 C-9.9753401 67.26227709 -9.77280803 61.26199854 -9.5703125 55.26171875 C-9.52868547 54.02523968 -9.48705845 52.7887606 -9.44417 51.51481247 C-9.24707593 45.68134862 -9.04482718 39.8481805 -8.83059692 34.01531982 C-8.66507186 29.47700848 -8.53295497 24.93914549 -8.4201355 20.39923096 C-8.35503409 18.201859 -8.28978385 16.00449144 -8.22436523 13.80712891 C-8.20556085 12.79478369 -8.18675646 11.78243847 -8.16738224 10.73941612 C-8.13695552 9.81080584 -8.1065288 8.88219555 -8.07518005 7.92544556 C-8.05518668 7.11325373 -8.03519331 6.3010619 -8.01459408 5.46425819 C-7.10427163 0.87708394 -4.29984148 -0.01583499 0 0 Z " fill="#000000" transform="translate(420.59765625,324.63671875)"/>
<path d="M0 0 C0.88365234 0.00064453 1.76730469 0.00128906 2.67773438 0.00195312 C3.59748047 0.01806641 4.51722656 0.03417969 5.46484375 0.05078125 C6.38845703 0.04755859 7.31207031 0.04433594 8.26367188 0.04101562 C15.13529202 0.09622952 15.13529202 0.09622952 17.40234375 2.36328125 C17.65961266 5.36247826 17.65961266 5.36247826 17.66976929 9.29647827 C17.6743004 10.01815363 17.67883151 10.73982898 17.68349993 11.48337328 C17.69621185 13.91394712 17.69451923 16.34429884 17.69287109 18.77490234 C17.69885214 20.51253042 17.7056567 22.25015583 17.71322632 23.98777771 C17.73093727 28.71713 17.73558385 33.44640998 17.73685789 38.17579222 C17.7387538 42.11973929 17.74610783 46.0636694 17.75320208 50.00760996 C17.76950321 59.31074607 17.77436948 68.61384345 17.77294922 77.91699219 C17.77174751 87.52255773 17.7928512 97.12789868 17.82443655 106.73340738 C17.85056483 114.972094 17.86131796 123.21070712 17.8600384 131.44943488 C17.85952772 136.37364119 17.86526886 141.29764805 17.8863945 146.2218132 C17.9057188 150.85279517 17.90594137 155.48338626 17.89136124 160.11438179 C17.88926475 161.81556962 17.89402378 163.51678154 17.90608215 165.21792793 C17.92146298 167.5377877 17.91227555 169.85628758 17.89682007 172.17611694 C17.8979096 173.475091 17.89899914 174.77406506 17.90012169 176.11240196 C17.31954927 179.90399396 16.42417787 181.08167921 13.40234375 183.36328125 C11.359375 183.88085938 11.359375 183.88085938 9.21484375 183.89453125 C8.04308594 183.90226562 8.04308594 183.90226562 6.84765625 183.91015625 C5.63722656 183.88695312 5.63722656 183.88695312 4.40234375 183.86328125 C3.59539062 183.87875 2.7884375 183.89421875 1.95703125 183.91015625 C1.17585938 183.905 0.3946875 183.89984375 -0.41015625 183.89453125 C-1.47169922 183.88776367 -1.47169922 183.88776367 -2.5546875 183.88085938 C-5.57448262 183.11580612 -6.67993373 181.80282589 -8.59765625 179.36328125 C-9.05671692 176.15562439 -9.05671692 176.15562439 -8.99926758 172.22631836 C-8.99449339 171.49062433 -8.9897192 170.75493031 -8.98480034 169.99694252 C-8.96417421 167.48178048 -8.91512314 164.96790456 -8.8671875 162.453125 C-8.84718223 160.61223971 -8.82934082 158.7713299 -8.81343079 156.93040466 C-8.77547113 152.76211399 -8.72715086 148.59408628 -8.67388916 144.42596436 C-8.58289325 136.75041631 -8.55676332 129.07490909 -8.53662109 121.39892578 C-8.52881546 118.5479019 -8.52082994 115.69687859 -8.51266479 112.84585571 C-8.51060992 112.12606313 -8.50855504 111.40627054 -8.5064379 110.66466606 C-8.47724498 100.99602771 -8.41920314 91.32754174 -8.36187553 81.65903664 C-8.31652186 73.95051903 -8.27702725 66.24205744 -8.2512207 58.53344727 C-8.22828841 51.68481437 -8.19502767 44.8363265 -8.14895469 37.98780864 C-8.12512258 34.39617897 -8.10632374 30.80469094 -8.10004234 27.21298409 C-8.09291119 23.25453678 -8.06256431 19.29645909 -8.0300293 15.33813477 C-8.03146439 14.16190552 -8.03289948 12.98567627 -8.03437805 11.77380371 C-8.0218399 10.70287979 -8.00930176 9.63195587 -7.99638367 8.52857971 C-7.9917747 7.59773339 -7.98716574 6.66688707 -7.98241711 5.70783329 C-7.19939697 0.93647617 -4.47117434 -0.01646596 0 0 Z " fill="#000000" transform="translate(472.59765625,324.63671875)"/>
<path d="M0 0 C1.97806641 -0.05607422 1.97806641 -0.05607422 3.99609375 -0.11328125 C7.5625 0.3125 7.5625 0.3125 9.74821854 1.98431492 C11.99079558 4.86211228 12.09104819 6.36876377 12.15740967 9.98924255 C12.18815079 11.14764145 12.21889191 12.30604034 12.25056458 13.49954224 C12.27107124 15.40133743 12.27107124 15.40133743 12.29199219 17.34155273 C12.32046609 18.69412295 12.35065631 20.04665796 12.38243103 21.39915466 C12.46390475 25.07825545 12.52107432 28.75738212 12.57386303 32.43699145 C12.63351029 36.31544772 12.71502352 40.19344653 12.79400635 44.07154846 C12.92416312 50.61090821 13.04010232 57.15038966 13.14599609 63.69018555 C13.29364591 72.80778013 13.46610258 81.92477125 13.64406729 91.04181755 C13.78318159 98.21398486 13.91580529 105.38627544 14.046875 112.55859375 C14.06744917 113.68287596 14.06744917 113.68287596 14.08843899 114.82987094 C14.24256022 123.30847375 14.37940577 131.78686849 14.47716737 140.26632053 C14.52755906 144.38004166 14.61184868 148.49161694 14.71884036 152.60424203 C14.76872597 154.64567488 14.80730516 156.68696763 14.84128189 158.72872257 C14.88406475 161.24652793 14.94530512 163.76411315 15.0283165 166.28091335 C15.1272103 174.53067209 15.1272103 174.53067209 12.22845459 178.54393005 C7.49553146 181.68370807 3.08523547 181.87446256 -2.4375 181.3125 C-6.97804054 179.23141892 -6.97804054 179.23141892 -8.4375 176.3125 C-8.58394624 173.90453511 -8.67253124 171.52171683 -8.71875 169.11132812 C-8.73681387 168.36424119 -8.75487774 167.61715425 -8.773489 166.84742832 C-8.83275367 164.34628531 -8.88514682 161.84504652 -8.9375 159.34375 C-8.97786051 157.57603599 -9.01860914 155.80833081 -9.0597229 154.04063416 C-9.16900909 149.28447126 -9.27212361 144.52819326 -9.37378693 139.77186203 C-9.45861324 135.83182676 -9.54665327 131.89186584 -9.63461494 127.95189953 C-10.1563123 104.55223163 -10.64420617 81.15175634 -11.0625 57.75 C-11.08296387 56.63882813 -11.10342773 55.52765625 -11.12451172 54.3828125 C-11.35443144 41.70492532 -11.48477244 29.02750624 -11.5234375 16.34765625 C-11.53041656 15.07933456 -11.53739563 13.81101288 -11.54458618 12.5042572 C-11.54644424 10.74850121 -11.54644424 10.74850121 -11.54833984 8.95727539 C-11.55118988 7.91471085 -11.55403992 6.8721463 -11.55697632 5.79798889 C-11.4375 3.3125 -11.4375 3.3125 -10.4375 1.3125 C-6.91443008 0.13814336 -3.6698872 0.05277882 0 0 Z " fill="#000000" transform="translate(583.4375,324.6875)"/>
<path d="M0 0 C1.40282227 -0.00193359 1.40282227 -0.00193359 2.83398438 -0.00390625 C4.3102832 0.00189453 4.3102832 0.00189453 5.81640625 0.0078125 C6.79673828 0.00394531 7.77707031 0.00007813 8.78710938 -0.00390625 C9.72361328 -0.00261719 10.66011719 -0.00132812 11.625 0 C12.91942017 0.00169189 12.91942017 0.00169189 14.23999023 0.00341797 C16.37890625 0.1328125 16.37890625 0.1328125 18.37890625 1.1328125 C20.46166662 10.64321988 19.60324128 21.31534832 19.6953125 31.01953125 C19.71618478 32.89416334 19.73736658 34.768792 19.75883484 36.64341736 C19.81480247 41.66368659 19.86451491 46.68399676 19.91194153 51.70435333 C19.94143388 54.82323428 19.97190966 57.94210439 20.00256348 61.06097412 C20.13586066 74.74653915 20.25092172 88.43220725 20.35559845 102.1180191 C20.37829196 105.05335569 20.40187929 107.98868377 20.42572021 110.92401123 C20.50906121 121.30189416 20.57456004 131.67960891 20.6100769 142.05776978 C20.62114515 145.18559024 20.63899283 148.31325931 20.66262817 151.44100952 C20.68963674 155.07917244 20.70224605 158.71708806 20.70304298 162.35534859 C20.70691391 164.30041532 20.72538322 166.24543592 20.74430847 168.19041443 C20.74135269 169.33494583 20.73839691 170.47947723 20.73535156 171.65869141 C20.73899719 172.65059479 20.74264282 173.64249817 20.74639893 174.66445923 C20.3169388 177.54903184 19.66623266 178.391164 17.37890625 180.1328125 C14.10868666 181.76792229 10.53156874 181.35909549 6.94140625 181.3828125 C5.77641602 181.41375 5.77641602 181.41375 4.58789062 181.4453125 C-1.03742917 181.48407439 -1.03742917 181.48407439 -3.32498169 180.1073761 C-5.35049878 177.02159946 -5.20071759 173.79515782 -5.30029297 170.21166992 C-5.33337996 169.34780009 -5.36646694 168.48393026 -5.40055656 167.59388256 C-5.87311025 153.21698164 -5.76658214 138.81787859 -5.75541925 124.4349978 C-5.752856 120.09136409 -5.75524328 115.74773232 -5.75680542 111.40409851 C-5.75861199 104.13650119 -5.75625697 96.86891412 -5.75146484 89.60131836 C-5.74598605 81.19509775 -5.74781692 72.78890125 -5.75329125 64.38268119 C-5.75781933 57.1390081 -5.75847561 49.89534229 -5.75585258 42.65166825 C-5.75429311 38.33544053 -5.75408783 34.0192242 -5.75738907 29.70299721 C-5.76026463 25.66367956 -5.75829803 21.62439342 -5.75249481 17.58507919 C-5.75116718 16.10031754 -5.75156138 14.61555325 -5.75375748 13.13079262 C-5.75646784 11.11346656 -5.75247517 9.09613473 -5.74807739 7.07881165 C-5.74770037 5.94793782 -5.74732334 4.817064 -5.74693489 3.65192127 C-5.53218031 -0.64707136 -3.84674979 0.00503454 0 0 Z " fill="#000000" transform="translate(525.62109375,325.8671875)"/>
<path d="M0 0 C4.5180025 0.43498099 8.69552209 1.40751621 13.04785156 2.6628418 C33.2017863 8.44438776 54.14405767 10.56610513 75 12 C75.77762695 12.05784668 76.55525391 12.11569336 77.35644531 12.17529297 C120.89869231 15.36662338 165.26697596 12.57731237 207.49267578 1.33642578 C209.31872883 0.85264135 211.15815868 0.41968757 213 0 C214.5788684 1.5788684 214.28319742 3.19292337 214.375 5.375 C214.42398438 6.16648437 214.47296875 6.95796875 214.5234375 7.7734375 C214 10 214 10 212.03515625 11.609375 C199.91364198 17.16311899 186.30187463 19.52333989 173.25 21.75 C171.54275757 22.04753174 171.54275757 22.04753174 169.80102539 22.35107422 C149.34743065 25.65336719 128.68388363 26.38267299 108 26.3125 C106.90013763 26.31100952 105.80027527 26.30951904 104.66708374 26.3079834 C15.09118466 26.09118466 15.09118466 26.09118466 -1 10 C-1.0979057 8.50261876 -1.12974864 7.00057108 -1.125 5.5 C-1.12757813 4.6853125 -1.13015625 3.870625 -1.1328125 3.03125 C-1 1 -1 1 0 0 Z " fill="#000000" transform="translate(396,525)"/>
<path d="M0 0 C15.06896552 0 15.06896552 0 19 3 C23.53059263 9.09286595 23.57285287 15.64665228 23 23 C21.82075036 28.06984493 19.36601746 31.16208865 15 34 C12 35 12 35 0 35 C0 23.45 0 11.9 0 0 Z " fill="#000000" transform="translate(234,641)"/>
<path d="M0 0 C2.206875 -0.061875 4.41375 -0.12375 6.6875 -0.1875 C8.54955078 -0.23970703 8.54955078 -0.23970703 10.44921875 -0.29296875 C14.2457708 0.02027812 16.01467371 0.69242347 19 3 C22.25605577 7.88408365 21.56807819 13.29116489 21 19 C20.02699135 21.85065237 19.19942927 22.80057073 17 25 C12 27 12 27 0 27 C0 18.09 0 9.18 0 0 Z " fill="#000000" transform="translate(600,641)"/>
<path d="M0 0 C15.2 0 15.2 0 19 3 C22.97909766 9.44888241 24.05301094 15.95052235 22.50390625 23.37890625 C21.05591895 28.34460282 19.59925345 31.24044793 15 34 C12 35 12 35 0 35 C0 23.45 0 11.9 0 0 Z " fill="#000000" transform="translate(840,641)"/>
<path d="M0 0 C0.33 0 0.66 0 1 0 C2.14407449 6.47703423 3.28286041 12.95498221 4.41796875 19.43359375 C4.80477036 21.63758411 5.1927836 23.84136219 5.58203125 26.04492188 C6.14120818 29.2116892 6.69602806 32.37919356 7.25 35.546875 C7.42499023 36.53242371 7.59998047 37.51797241 7.78027344 38.53338623 C7.94043945 39.4540387 8.10060547 40.37469116 8.265625 41.32324219 C8.40774414 42.1315448 8.54986328 42.93984741 8.69628906 43.77264404 C9 46 9 46 9 50 C3.39 50 -2.22 50 -8 50 C-7.30988457 39.45386989 -5.34866937 29.18997107 -3.4375 18.8125 C-3.1043762 16.98380433 -2.7716903 15.15502883 -2.43945312 13.32617188 C-1.63134864 8.88317799 -0.81732274 4.44130695 0 0 Z " fill="#000000" transform="translate(335,645)"/>
<path d="M0 0 C14 0 14 0 20 3 C23.97213115 8.34183155 24.4883772 13.45574557 24 20 C22.35386721 27.72416153 22.35386721 27.72416153 19 30 C13 32 13 32 0 32 C0 21.44 0 10.88 0 0 Z " fill="#000000" transform="translate(600,688)"/>
<path d="M0 0 C4.40973013 2.83765145 6.54585536 6.64394241 7.90545654 11.59815979 C9.27203081 18.10452501 9.6047907 24.32836754 9.578125 30.96484375 C9.58099518 32.56919029 9.58099518 32.56919029 9.58392334 34.20594788 C9.58527623 36.45395139 9.58164286 38.70196295 9.57324219 40.94995117 C9.56254078 44.36199772 9.57316296 47.77351657 9.5859375 51.18554688 C9.58461554 53.38281365 9.58205239 55.58008009 9.578125 57.77734375 C9.58217346 58.78288803 9.58622192 59.78843231 9.59039307 60.82444763 C9.52894978 70.25810312 9.01147211 79.62176682 3.3125 87.4375 C-0.49474597 90.9088125 -4.37670422 90.88460507 -9.31640625 90.73046875 C-13.84969715 90.1703422 -16.7476904 87.75776413 -19.6875 84.4375 C-23.18592257 76.93812407 -23.12673424 69.0187806 -23.0859375 60.90625 C-23.08880768 59.63454956 -23.09167786 58.36284912 -23.09463501 57.0526123 C-23.09666737 54.37639044 -23.09273153 51.70100361 -23.07861328 49.02490234 C-23.06152275 45.62256493 -23.07138117 42.22093786 -23.08933067 38.8186264 C-23.10287755 35.53531011 -23.09334784 32.25207563 -23.0859375 28.96875 C-23.09201019 27.76118042 -23.09808289 26.55361084 -23.1043396 25.30944824 C-23.03623654 17.0404753 -22.26700493 9.56470789 -17.8125 2.4375 C-12.74933898 -2.32782802 -6.24423487 -3.11543196 0 0 Z " fill="#000000" transform="translate(362.6875,791.5625)"/>
<path d="M0 0 C5.83319623 0.07035653 10.39774527 0.44199658 14.9375 4.3125 C19.77890495 9.42976848 19.49767986 16.44287771 19.40625 23.08154297 C19.17827296 28.45918896 18.78648545 33.23257542 14.9375 37.3125 C10.30860741 41.34824304 5.62156899 41.48969305 -0.3515625 41.40625 C-1.6092041 41.39271484 -2.8668457 41.37917969 -4.16259766 41.36523438 C-5.11956543 41.34783203 -6.0765332 41.33042969 -7.0625 41.3125 C-7.08714705 35.63419922 -7.10533462 29.95592931 -7.11743164 24.27758789 C-7.12247256 22.34431415 -7.12930519 20.41104424 -7.13793945 18.4777832 C-7.15001565 15.70523128 -7.15573057 12.93272959 -7.16015625 10.16015625 C-7.16531754 9.29036636 -7.17047882 8.42057648 -7.17579651 7.52442932 C-7.17599185 5.45344186 -7.12458168 3.38255676 -7.0625 1.3125 C-5.22960552 -0.52039448 -2.46646175 0.05380341 0 0 Z " fill="#000000" transform="translate(637.0625,790.6875)"/>
</svg>
