<?xml version="1.0" encoding="UTF-8" standalone="no"?>
<!-- Created with Inkscape (http://www.inkscape.org/) -->
<svg
   xmlns:svg="http://www.w3.org/2000/svg"
   xmlns="http://www.w3.org/2000/svg"
   version="1.0"
   width="630"
   height="330"
   id="svg2440">
  <defs
     id="defs2443" />
  <g
     transform="translate(599.07665,-85.490607)"
     id="g2471"
     style="fill:#000080">
    <path
       d="M -506.68488,410.79048 C -511.35867,409.96038 -518.10867,407.92926 -521.68488,406.27689 C -525.2611,404.62451 -530.43709,402.65094 -533.18709,401.89116 C -540.108,399.97902 -557.41083,400.0548 -562.10898,402.01781 C -564.12536,402.86031 -566.18909,403.29378 -566.69504,402.98109 C -567.20099,402.66839 -570.28364,403.10408 -573.54536,403.94928 C -576.80709,404.79447 -580.8308,405.486 -582.48693,405.486 C -586.28144,405.486 -593.48156,401.71234 -595.47579,398.67841 C -595.47579,398.67841 -596.47711,397.86071 -596.8526,396.98071 C -596.93926,396.77764 -596.99258,396.57125 -596.99258,396.37082 C -597.3622,394.06068 -596.39324,381.0241 -596.39324,381.0241 C -596.01467,371.33056 -595.27177,364.42776 -594.37647,362.285 C -592.24182,357.17608 -587.31699,353.486 -582.63319,353.486 C -578.15892,353.486 -566.96524,357.43969 -562.56138,360.57551 C -560.91853,361.74532 -556.20749,363.54381 -552.09241,364.57216 C -547.97732,365.6005 -541.3737,367.8018 -537.4177,369.46393 C -533.46169,371.12607 -532.71723,371.95764 -529.30993,371.6546 C -525.84526,371.34646 -522.46866,365.54398 -520.92463,361.31275 C -520.01702,358.82555 -518.19579,355.89491 -508.18709,344.07316 C -504.33709,339.52575 -499.69797,333.65741 -497.87793,331.0324 C -497.87793,331.0324 -496.92413,326.73073 -494.56877,326.25966 C -492.7872,325.90335 -490.7903,326.27897 -490.7903,326.27897 C -489.10409,326.61621 -486.09275,326.77337 -483.66294,326.77337 C -483.66294,326.77337 -481.53072,326.34595 -479.60141,327.486 C -476.98844,329.03003 -474.89425,331.87691 -474.89425,331.87691 C -470.82334,335.67431 -465.57795,337.83666 -461.70239,337.41148 C -459.56516,337.17701 -457.87049,336.42166 -455.37629,334.76956 C -455.37629,334.76956 -452.60702,331.64698 -450.84136,331.64698 C -449.05979,331.64698 -446.47547,333.4249 -446.47547,333.4249 C -443.48038,335.1035 -439.5597,336.89268 -436.298,338.52257 C -433.03631,340.15245 -428.83821,341.486 -426.96892,341.486 L -423.57021,341.486 L -419.46214,336.97203 C -417.2027,334.48935 -414.57769,330.72398 -413.62879,328.60453 C -412.67988,326.48509 -410.89226,324.04269 -409.65629,323.17699 L -407.40907,321.60298 L -399.29808,322.16783 L -391.18708,322.73269 L -383.33507,319.42788 L -375.48306,316.12306 L -373.22108,312.53985 C -369.70452,306.96927 -368.24966,306.13704 -363.23062,306.82498 C -360.26942,307.23085 -357.57532,306.91942 -355.09976,305.88507 C -352.56517,304.82605 -349.94307,304.53819 -346.78616,304.97237 C -346.78616,304.97237 -343.16296,305.68811 -342.17484,305.52296 C -340.46492,304.73357 -337.68096,303.56826 -337.68096,303.56826 C -335.20933,302.44717 -331.77968,301.52004 -330.05952,301.50796 C -326.42863,301.48247 -325.46151,300.46068 -323.88645,294.986 C -323.12517,292.33994 -320.02851,287.99409 -314.73783,282.14686 C -310.33903,277.28533 -305.81073,271.8041 -304.67494,269.96635 C -302.07267,265.75579 -291.05418,257.486 -288.04639,257.486 C -286.80053,257.486 -284.62712,258.01183 -283.21661,258.6545 L -280.65202,259.823 L -276.41955,257.74632 C -271.41021,255.28845 -261.44704,253.11002 -258.90508,253.91681 C -257.91763,254.23021 -254.51767,253.81149 -251.34961,252.98632 C -248.18155,252.16114 -243.8551,251.486 -241.73528,251.486 L -237.88107,251.486 L -235.03407,248.03123 C -233.03921,245.6105 -229.94227,243.70429 -224.68709,241.6625 L -217.18709,238.74853 L -215.88252,236.11727 C -215.16501,234.67007 -214.23737,233.486 -213.82109,233.486 C -213.40481,233.486 -212.08242,232.57132 -210.88245,231.45338 C -209.68247,230.33543 -206.59617,228.51865 -204.02399,227.41609 C -201.45182,226.31353 -198.32025,224.30321 -197.06495,222.94872 C -195.80964,221.59422 -193.94528,220.486 -192.92192,220.486 C -190.01796,220.486 -185.68708,225.64222 -185.68708,229.09959 C -185.68708,233.11822 -184.14431,234.74352 -169.89545,245.736 L -166.3308,248.486 L -162.13139,248.486 C -157.39199,248.486 -156.52576,247.69701 -154.86009,241.86308 L -153.68294,237.74015 L -155.18501,234.14519 C -156.01115,232.16797 -156.68708,229.16786 -156.68708,227.47828 C -156.68708,223.66159 -160.0439,216.90059 -162.6246,215.51944 C -163.68665,214.95105 -166.40564,214.486 -168.66679,214.486 L -172.77799,214.486 L -175.23253,212.03145 C -176.58253,210.68145 -177.68708,208.81143 -177.68708,207.87585 C -177.68708,205.14628 -172.90087,199.63572 -168.64377,197.46391 C -166.48368,196.36191 -164.06817,194.38942 -163.19361,193.1363 C -160.43252,189.18006 -151.98095,183.23365 -148.95915,183.23365 C -144.23458,183.23365 -139.90245,182.15499 -139.68708,179.12043 C -139.35746,174.47607 -135.2606,167.82528 -131.79906,173.22666 L -126.41104,172.75306 L -123.25577,168.99478 L -120.10051,165.2365 L -115.98725,164.02575 C -113.81106,164.30693 -111.38478,165.63424 -110.21287,166.01867 C -108.89216,166.45191 -107.81889,166.20994 -107.13449,165.38219 C -106.5272,164.64769 -104.6121,163.60271 -103.26138,161.91203 C -101.85467,160.15126 -99.078406,158.32061 -96.762626,157.62678 C -94.428296,156.9274 -92.241776,155.47952 -91.588806,154.20075 C -90.966816,152.98264 -88.302006,149.736 -85.667016,146.986 C -80.895136,142.00584 -76.482616,133.02838 -75.083846,125.45406 C -74.106916,120.16403 -72.088456,117.68654 -67.679246,116.3655 C -65.470486,115.70375 -63.182446,114.58288 -62.594696,113.87469 C -62.006956,113.1665 -61.376156,109.30183 -61.192926,105.28654 C -61.009696,101.27124 -60.340946,96.635996 -59.706816,94.985996 C -58.399656,91.584786 -54.873796,87.483686 -53.262766,87.490616 C -51.653556,87.497546 -46.148526,92.946756 -41.788956,98.848076 C -39.369936,102.12259 -36.483896,104.69515 -34.058016,105.73927 C -25.136696,109.5791 -23.016596,110.61008 -19.728056,112.70779 C -19.728056,112.70779 -18.608803,114.56328 -16.269036,114.91425 C -12.639845,115.45863 -9.6082855,115.03786 -9.6082855,115.03786 C -9.6082855,115.03786 -5.4789841,113.89382 -2.9475455,115.16147 C -0.58510732,116.34449 1.3464045,119.28748 1.3464045,119.28748 C 3.7080745,121.55679 7.2541745,124.1699 9.2266345,125.09439 C 11.199084,126.01889 15.759444,128.95443 19.360754,131.61781 C 19.360754,131.61781 24.636517,135.00541 25.908594,136.46034 C 26.871545,137.56171 27.607794,141.22317 27.607794,141.22317 C 30.308054,148.79198 30.743354,154.52005 28.945304,158.82338 C 28.076894,160.90179 27.064474,164.93864 26.695494,167.79415 C 25.251684,178.96773 17.647484,191.32966 5.1096245,202.8857 C 0.54643445,207.09155 -4.9870855,211.39268 -7.1870855,212.44376 C -9.3870755,213.49484 -15.462076,216.33913 -20.687076,218.76439 C -25.912076,221.18965 -33.562076,224.78581 -37.687076,226.75584 C -41.812076,228.72588 -47.832626,231.07553 -51.066076,231.9773 C -54.299526,232.87906 -58.124526,234.47179 -59.566076,235.51669 C -61.007626,236.56159 -65.786146,238.14839 -70.185006,239.04292 C -74.583876,239.93746 -80.855446,241.79418 -84.121846,243.16899 C -87.388236,244.5438 -92.789166,246.26131 -96.123906,246.98569 C -99.458646,247.71006 -104.66208,248.83551 -107.68708,249.48668 C -110.71208,250.13785 -114.98708,251.24957 -117.18708,251.95717 C -119.38708,252.66477 -124.33708,253.54504 -128.18708,253.91333 C -134.61965,254.52866 -143.08591,256.456 -148.29693,258.49134 L -150.40679,259.31541 L -151.11244,264.63489 L -151.8181,269.95437 L -156.24478,274.19588 C -158.67945,276.52871 -162.39258,279.31543 -164.49617,280.3886 C -166.59976,281.46177 -168.86819,282.9993 -169.53713,283.80533 C -170.20608,284.61135 -172.20097,285.84954 -173.97024,286.55687 C -175.7395,287.26419 -178.80664,289.09661 -180.7861,290.62891 C -184.09255,293.18843 -212.97393,307.17322 -218.71391,308.99413 C -220.07416,309.42564 -225.01209,311.69508 -229.68709,314.03732 C -246.05131,322.23605 -260.22558,328.71248 -264.68708,330.02933 C -267.16208,330.75985 -272.1593,332.48033 -275.79202,333.85261 C -279.42474,335.22489 -285.27474,336.88781 -288.79202,337.54797 C -292.3093,338.20814 -299.1326,340.05602 -303.95491,341.65438 C -308.77721,343.25274 -315.28987,345.03505 -318.42748,345.61507 C -322.19066,346.31073 -325.21847,347.6234 -327.32388,349.47197 C -329.07929,351.01324 -332.24164,352.7981 -334.35131,353.43832 C -338.28495,354.63206 -340.94887,355.70656 -355.68708,362.04413 C -365.03295,366.06294 -377.90069,370.486 -380.24649,370.486 C -382.10861,370.486 -393.06195,375.96428 -396.9612,378.84581 C -398.55404,380.02292 -401.4095,383.14614 -403.30667,385.78632 C -405.56656,388.93129 -408.21463,391.21186 -410.98573,392.39969 C -413.31205,393.39687 -415.80441,394.92245 -416.5243,395.78986 C -417.70588,397.21358 -420.91804,398.56807 -437.18709,404.50286 C -456.10384,411.40352 -487.32794,414.22843 -506.68488,410.79048 z"
       id="path2493"
       style="fill:#000080" />
  </g>
</svg>
