<?xml version="1.0" encoding="utf-8"?>
<!-- Generator: Adobe Illustrator 26.0.3, SVG Export Plug-In . SVG Version: 6.00 Build 0)  -->
<svg version="1.0" id="katman_1" xmlns="http://www.w3.org/2000/svg" xmlns:xlink="http://www.w3.org/1999/xlink" x="0px" y="0px"
	 viewBox="0 0 800 600" style="enable-background:new 0 0 800 600;" xml:space="preserve">
<style type="text/css">
	.st0{fill-rule:evenodd;clip-rule:evenodd;fill:#1D1D1B;}
</style>
<path class="st0" d="M548.2,213.1c-8.5,31.8-17.1,63.5-25.4,95.4c-4.2,15.9-8.3,31.8-13.1,47.6c-4.7,15.3-10.4,31.6-18.7,45.5
	c-8.7,14.5-20,25.8-35.6,33.1c-6.2,2.9-12.6,4.9-19.3,6.3c-9.5,2-19.1,2.8-28.7,3.4c-23.9,1.3-74.7,1.1-98.7,1.1l14.7-54.4
	c11.1,0,22.2,0,33.3-0.3c10.7-0.3,22.5-0.9,33.1-3.4c11.6-2.7,20.3-7.4,27.9-16.8c7-8.6,11.6-19.3,15.5-29.3
	c7-18.4,14.2-44.8,19.2-63.7c5.7-21.5,11.2-43,16.7-64.5L548.2,213.1z M647.1,213.1l-42.7,158.2h-79.1L568,213.1H647.1z
	 M386.2,153.7h79.1c-8.3,30.9-16.6,61.8-24.9,92.6c-5.8,21.5-11.6,43-18,64.4c-2.8,9.3-5.5,18.6-9.2,27.6
	c-2.9,7.3-6.2,13.7-12.2,19.1c-4.5,4.1-9.4,6.6-15.1,8.4c-7.3,2.3-14.8,3.2-22.4,3.8c-10.9,0.9-21.8,1.1-32.8,1.3
	c-25.2,0.4-70.8,0.3-96,0.2c-9,0-18.1-0.1-27.1-0.3c-6.6-0.1-13.1-0.3-19.6-0.7c-4.4-0.3-8.7-0.6-13-1.4c-2.9-0.5-5.7-1.3-8.5-2.5
	c-9.1-4-13.7-11.9-13.9-21.5c-0.2-5.5,0.8-10.8,1.9-16.1c1.6-7.5,3.5-15,5.4-22.4c3.7-14.2,10.4-40.5,15.7-54.3
	c4.1-10.8,9.6-21.6,19.9-28.5c5.8-3.8,11.9-5.9,18.6-7.2c5-1,10-1.5,15-1.9c8.4-0.6,16.9-0.8,25.3-1c12-0.2,24-0.3,36-0.3l30,0h30
	l-10.7,39.6c-17.8,0-35.6,0-53.4,0.1c-5.2,0-10.4,0-15.6,0.3c-1.8,0.1-3.6,0.2-5.4,0.9c-2.3,0.8-3.5,2.3-4.5,4.4
	c-1.5,3.1-2.4,6.4-3.3,9.6c-1.5,5-2.8,10-4.2,15c-2.1,7.7-4.2,15.5-6.2,23.2c-0.7,2.9-1.5,5.7-2.1,8.7c-0.4,2-0.8,4.1-1,6.1
	c-0.2,2.3-0.3,5,1.1,7.1c1.4,2.1,3.8,2.6,6,3c2.5,0.4,5,0.4,7.5,0.5c4.1,0.1,8.2,0.1,12.3,0.2c11.2,0.1,22.4,0.1,33.6,0
	c5.2,0,10.3-0.1,15.5-0.3c3.6-0.1,7.1-0.3,10.6-1.1c2.7-0.6,4.7-1.7,6.5-3.8c1.2-1.5,2-3.1,2.7-4.8c1.8-4.3,3.1-8.8,4.4-13.2
	c5.1-17.1,9.6-34.3,14.3-51.5l13.9-51.6L386.2,153.7h79.1H386.2z"/>
</svg>
